<?xml version="1.0" encoding="UTF-8" ?>
<!DOCTYPE svg PUBLIC "-//W3C//DTD SVG 1.1//EN" "http://www.w3.org/Graphics/SVG/1.1/DTD/svg11.dtd">
<svg width="773pt" height="773pt" viewBox="0 0 773 773" version="1.1" xmlns="http://www.w3.org/2000/svg">
<g id="#7db6e4ff">
<path fill="#7db6e4" opacity="1.00" d=" M 374.15 73.15 C 412.90 71.35 451.97 76.24 489.15 87.30 C 567.07 110.23 636.30 161.47 680.68 229.51 C 702.78 262.88 718.92 300.16 728.35 339.04 C 738.81 382.06 740.95 427.05 734.85 470.89 C 729.19 511.50 716.31 551.11 696.93 587.25 C 662.28 652.40 606.25 705.87 539.50 737.35 C 480.37 765.70 413.11 776.52 348.04 768.85 C 304.68 763.85 262.28 750.58 223.81 729.96 C 158.40 695.20 104.76 638.87 73.31 571.79 C 39.29 500.51 30.92 417.56 49.23 340.80 C 61.79 287.56 87.15 237.39 122.60 195.73 C 155.62 156.61 197.58 125.14 244.17 103.97 C 284.98 85.48 329.37 74.81 374.15 73.15 M 294.60 125.54 C 278.29 132.01 266.33 145.88 257.55 160.62 C 245.45 181.78 238.14 205.63 236.27 229.94 C 234.84 252.52 236.83 275.52 243.97 297.07 C 245.58 303.02 248.49 308.53 249.94 314.52 C 223.71 334.47 205.41 363.48 195.31 394.59 C 190.07 410.48 188.66 427.52 190.43 444.12 C 192.18 456.23 196.03 468.26 202.78 478.55 C 198.25 479.77 193.50 479.44 188.89 480.13 C 181.23 480.61 173.77 482.76 166.09 482.86 C 161.60 483.23 157.33 484.78 152.88 485.37 C 148.69 486.23 143.95 486.57 140.74 489.73 C 136.82 493.55 132.01 496.32 128.26 500.31 C 122.82 505.76 119.42 512.77 114.95 518.93 C 110.84 523.36 108.25 528.88 104.39 533.48 C 100.12 538.69 97.81 545.12 95.14 551.22 C 93.45 557.55 90.20 563.43 89.43 570.00 C 88.41 578.47 89.39 587.62 94.20 594.88 C 98.00 601.05 103.90 606.07 110.94 608.08 C 117.70 610.41 124.72 607.82 131.57 607.39 C 142.63 605.32 153.72 603.35 164.91 602.06 C 177.47 599.90 190.25 599.74 202.95 599.18 C 224.05 598.79 245.24 599.89 266.01 603.77 C 297.21 609.19 328.08 619.56 354.00 638.13 C 365.44 646.53 380.33 647.21 393.96 646.18 C 403.15 645.81 412.32 643.18 419.92 637.93 C 438.53 624.96 459.58 615.64 481.41 609.61 C 513.71 600.04 547.73 598.25 581.21 599.44 C 603.00 600.45 624.59 603.85 645.94 608.20 C 652.19 608.78 658.96 609.69 664.81 606.79 C 673.04 603.06 679.10 595.27 681.38 586.60 C 683.84 578.94 682.18 570.84 681.74 563.01 C 681.29 556.49 678.69 550.47 676.38 544.46 C 674.32 538.17 670.85 532.39 666.76 527.23 C 660.97 523.31 657.88 516.77 652.61 512.29 C 647.24 507.70 642.61 502.31 637.13 497.86 C 629.78 492.82 621.76 488.87 613.71 485.12 C 609.29 482.25 603.97 481.65 599.07 480.00 C 590.14 477.76 580.87 477.62 571.81 476.22 C 577.90 465.46 581.14 453.28 582.30 441.02 C 584.75 404.47 570.27 368.44 547.85 340.08 C 539.40 329.71 529.18 320.99 518.41 313.14 C 518.69 310.99 519.15 308.86 520.07 306.89 C 523.81 298.22 527.55 289.55 530.36 280.53 C 539.48 250.45 544.81 218.41 539.53 187.09 C 536.23 167.21 527.84 147.16 511.84 134.20 C 502.38 127.19 490.96 121.96 478.97 122.34 C 467.51 122.54 456.81 127.95 447.99 134.94 C 432.77 147.66 423.34 165.69 415.90 183.74 C 410.87 197.84 406.57 212.26 404.36 227.10 C 401.03 247.04 399.45 267.27 399.91 287.49 C 389.83 286.68 379.68 286.42 369.60 287.40 C 370.42 277.94 371.61 268.51 372.09 259.03 C 372.16 245.33 372.59 231.56 370.86 217.93 C 368.29 193.81 363.80 169.31 352.28 147.70 C 346.70 138.30 338.85 129.77 328.68 125.36 C 317.99 120.46 305.29 120.84 294.60 125.54 Z" />
<path fill="#7db6e4" opacity="1.00" d=" M 298.30 410.41 C 304.05 408.35 310.59 411.86 312.50 417.55 C 314.23 423.21 313.22 429.23 313.48 435.05 C 313.26 440.63 314.43 446.64 311.68 451.79 C 309.52 456.16 304.21 458.92 299.42 457.47 C 294.32 456.27 291.13 451.08 291.04 446.06 C 290.93 437.69 291.03 429.33 291.00 420.97 C 290.81 416.33 293.97 411.93 298.30 410.41 Z" />
<path fill="#7db6e4" opacity="1.00" d=" M 456.27 416.29 C 462.57 413.09 471.01 417.92 471.66 424.91 C 472.33 431.90 471.98 438.96 471.85 445.97 C 471.83 450.85 469.68 456.16 464.91 458.13 C 459.08 461.38 451.32 457.14 450.21 450.74 C 449.01 442.54 449.63 434.21 449.95 425.97 C 449.95 421.84 452.56 418.02 456.27 416.29 Z" />
<path fill="#7db6e4" opacity="1.00" d=" M 375.14 439.06 C 377.41 437.15 381.40 437.24 383.29 439.66 C 384.87 442.09 384.91 445.14 386.23 447.69 C 389.45 449.80 393.39 447.98 396.31 446.20 C 398.41 444.73 401.22 445.98 402.19 448.17 C 403.53 450.07 402.04 452.31 400.84 453.85 C 397.63 457.41 392.56 458.51 387.94 458.17 C 384.23 458.27 381.34 455.66 378.18 454.15 C 375.45 456.16 372.58 458.35 369.08 458.69 C 364.50 459.43 359.83 457.53 356.46 454.48 C 353.35 451.76 354.80 445.66 359.02 445.02 C 362.69 444.89 366.04 448.76 369.71 446.69 C 372.42 444.90 373.07 441.41 375.14 439.06 Z" />
<path fill="#7db6e4" opacity="1.00" d=" M 180.04 502.66 C 188.94 501.12 197.96 500.34 206.95 499.49 C 256.96 495.14 308.91 504.03 352.69 529.25 C 365.44 536.26 376.56 545.81 387.02 555.82 C 391.16 552.40 394.63 548.24 398.84 544.89 C 426.25 522.06 460.53 509.12 495.19 502.24 C 527.77 496.34 561.30 497.60 593.88 502.80 C 597.96 503.40 602.20 504.85 604.65 508.41 C 610.18 515.77 614.38 524.12 617.77 532.67 C 606.89 530.74 595.99 528.87 584.97 527.92 C 540.70 522.09 494.48 526.02 453.11 543.49 C 431.40 552.28 411.24 565.07 394.59 581.59 C 392.39 583.95 390.44 586.59 387.86 588.58 C 385.84 588.98 384.44 586.98 383.04 585.87 C 369.35 570.82 352.45 558.88 334.30 549.81 C 297.60 531.23 255.82 524.09 214.93 525.65 C 194.54 526.26 174.37 529.51 154.29 532.86 C 158.67 524.01 163.28 515.17 169.52 507.46 C 172.02 504.20 176.23 503.38 180.04 502.66 Z" />
</g>
<g id="#fefefcff">
<path fill="#fefefc" opacity="1.00" d=" M 294.60 125.54 C 305.29 120.84 317.99 120.46 328.68 125.36 C 338.85 129.77 346.70 138.30 352.28 147.70 C 363.80 169.31 368.29 193.81 370.86 217.93 C 372.59 231.56 372.16 245.33 372.09 259.03 C 371.61 268.51 370.42 277.94 369.60 287.40 C 379.68 286.42 389.83 286.68 399.91 287.49 C 399.45 267.27 401.03 247.04 404.36 227.10 C 406.57 212.26 410.87 197.84 415.90 183.74 C 423.34 165.69 432.77 147.66 447.99 134.94 C 456.81 127.95 467.51 122.54 478.97 122.34 C 490.96 121.96 502.38 127.19 511.84 134.20 C 527.84 147.16 536.23 167.21 539.53 187.09 C 544.81 218.41 539.48 250.45 530.36 280.53 C 527.55 289.55 523.81 298.22 520.07 306.89 C 519.15 308.86 518.69 310.99 518.41 313.14 C 529.18 320.99 539.40 329.71 547.85 340.08 C 570.27 368.44 584.75 404.47 582.30 441.02 C 581.14 453.28 577.90 465.46 571.81 476.22 C 580.87 477.62 590.14 477.76 599.07 480.00 C 603.97 481.65 609.29 482.25 613.71 485.12 C 621.76 488.87 629.78 492.82 637.13 497.86 C 642.61 502.31 647.24 507.70 652.61 512.29 C 657.88 516.77 660.97 523.31 666.76 527.23 C 670.85 532.39 674.32 538.17 676.38 544.46 C 678.69 550.47 681.29 556.49 681.74 563.01 C 682.18 570.84 683.84 578.94 681.38 586.60 C 679.10 595.27 673.04 603.06 664.81 606.79 C 658.96 609.69 652.19 608.78 645.94 608.20 C 624.59 603.85 603.00 600.45 581.21 599.44 C 547.73 598.25 513.71 600.04 481.41 609.61 C 459.58 615.64 438.53 624.96 419.92 637.93 C 412.32 643.18 403.15 645.81 393.96 646.18 C 380.33 647.21 365.44 646.53 354.00 638.13 C 328.08 619.56 297.21 609.19 266.01 603.77 C 245.24 599.89 224.05 598.79 202.95 599.18 C 190.25 599.74 177.47 599.90 164.91 602.06 C 153.72 603.35 142.63 605.32 131.57 607.39 C 124.72 607.82 117.70 610.41 110.94 608.08 C 103.90 606.07 98.00 601.05 94.20 594.88 C 89.39 587.62 88.41 578.47 89.43 570.00 C 90.20 563.43 93.45 557.55 95.14 551.22 C 97.81 545.12 100.12 538.69 104.39 533.48 C 108.25 528.88 110.84 523.36 114.95 518.93 C 119.42 512.77 122.82 505.76 128.26 500.31 C 132.01 496.32 136.82 493.55 140.74 489.73 C 143.95 486.57 148.69 486.23 152.88 485.37 C 157.33 484.78 161.60 483.23 166.09 482.86 C 173.77 482.76 181.23 480.61 188.89 480.13 C 193.50 479.44 198.25 479.77 202.78 478.55 C 196.03 468.26 192.18 456.23 190.43 444.12 C 188.66 427.52 190.07 410.48 195.31 394.59 C 205.41 363.48 223.71 334.47 249.94 314.52 C 248.49 308.53 245.58 303.02 243.97 297.07 C 236.83 275.52 234.84 252.52 236.27 229.94 C 238.14 205.63 245.45 181.78 257.55 160.62 C 266.33 145.88 278.29 132.01 294.60 125.54 M 298.30 410.41 C 293.97 411.93 290.81 416.33 291.00 420.97 C 291.03 429.33 290.93 437.69 291.04 446.06 C 291.13 451.08 294.32 456.27 299.42 457.47 C 304.21 458.92 309.52 456.16 311.68 451.79 C 314.43 446.64 313.26 440.63 313.48 435.05 C 313.22 429.23 314.23 423.21 312.50 417.55 C 310.59 411.86 304.05 408.35 298.30 410.41 M 456.27 416.29 C 452.56 418.02 449.95 421.84 449.95 425.97 C 449.63 434.21 449.01 442.54 450.21 450.74 C 451.32 457.14 459.08 461.38 464.91 458.13 C 469.68 456.16 471.83 450.85 471.85 445.97 C 471.98 438.96 472.33 431.90 471.66 424.91 C 471.01 417.92 462.57 413.09 456.27 416.29 M 375.14 439.06 C 373.07 441.41 372.42 444.90 369.71 446.69 C 366.04 448.76 362.69 444.89 359.02 445.02 C 354.80 445.66 353.35 451.76 356.46 454.48 C 359.83 457.53 364.50 459.43 369.08 458.69 C 372.58 458.35 375.45 456.16 378.18 454.15 C 381.34 455.66 384.23 458.27 387.94 458.17 C 392.56 458.51 397.63 457.41 400.84 453.85 C 402.04 452.31 403.53 450.07 402.19 448.17 C 401.22 445.98 398.41 444.73 396.31 446.20 C 393.39 447.98 389.45 449.80 386.23 447.69 C 384.91 445.14 384.87 442.09 383.29 439.66 C 381.40 437.24 377.41 437.15 375.14 439.06 M 180.04 502.66 C 176.23 503.38 172.02 504.20 169.52 507.46 C 163.28 515.17 158.67 524.01 154.29 532.86 C 174.37 529.51 194.54 526.26 214.93 525.65 C 255.82 524.09 297.60 531.23 334.30 549.81 C 352.45 558.88 369.35 570.82 383.04 585.87 C 384.44 586.98 385.84 588.98 387.86 588.58 C 390.44 586.59 392.39 583.95 394.59 581.59 C 411.24 565.07 431.40 552.28 453.11 543.49 C 494.48 526.02 540.70 522.09 584.97 527.92 C 595.99 528.87 606.89 530.74 617.77 532.67 C 614.38 524.12 610.18 515.77 604.65 508.41 C 602.20 504.85 597.96 503.40 593.88 502.80 C 561.30 497.60 527.77 496.34 495.19 502.24 C 460.53 509.12 426.25 522.06 398.84 544.89 C 394.63 548.24 391.16 552.40 387.02 555.82 C 376.56 545.81 365.44 536.26 352.69 529.25 C 308.91 504.03 256.96 495.14 206.95 499.49 C 197.96 500.34 188.94 501.12 180.04 502.66 Z" />
</g>
</svg>
